<svg xmlns="http://www.w3.org/2000/svg" xmlns:xlink="http://www.w3.org/1999/xlink" x="0px" y="0px"
	 width="511.626px" height="511.627px" viewBox="0 0 511.626 511.627" enable-background="new 0 0 511.626 511.627"
	 xml:space="preserve">
<g>
	<path fill="#8b95cf" d="M191.868,511.626c4.949,0,9.23-1.807,12.847-5.424l146.183-146.178c3.613-3.622,5.424-7.906,5.424-12.854
		c0-4.946-1.811-9.227-5.424-12.847c-3.615-3.614-7.899-5.421-12.847-5.421H264.96V264.95c0-18.654,0.568-35.356,1.711-50.109
		s3.19-29.408,6.14-43.968c2.949-14.561,6.994-27.218,12.135-37.974c5.14-10.754,11.752-20.793,19.842-30.118
		c8.09-9.329,17.695-16.94,28.835-22.841c11.136-5.902,24.314-10.517,39.543-13.85c15.226-3.328,32.452-4.996,51.675-4.996
		c10.461,0,22.176,0.476,35.114,1.429c1.144,0,3.375,0.239,6.708,0.715c3.333,0.477,5.851,0.715,7.569,0.715
		c2.848,0,5.23-0.809,7.132-2.424c1.903-1.619,2.854-3.856,2.854-6.711c0-3.046-1.622-5.712-4.859-7.994
		c-1.711-1.331-3.805-2.569-6.276-3.715c-2.477-1.142-5.332-2.425-8.565-3.854c-3.235-1.43-5.514-2.426-6.849-2.996
		C403.421,12.087,360.501,0,328.907,0c-37.877,0-69.572,5.042-95.074,15.127c-76.706,30.839-115.06,114.107-115.06,249.823v63.953
		H45.684c-4.948,0-9.231,1.811-12.85,5.428c-3.617,3.614-5.426,7.898-5.426,12.847s1.809,9.23,5.426,12.847l146.178,146.181
		C182.636,509.82,186.92,511.626,191.868,511.626z"/>
</g>
</svg>
